<svg xmlns="http://www.w3.org/2000/svg" version="1.1" xmlns:xlink="http://www.w3.org/1999/xlink" xmlns:svgjs="http://svgjs.dev/svgjs" width="24" height="24"><svg width="24" height="24" viewBox="0 0 24 24" fill="none" xmlns="http://www.w3.org/2000/svg">
<path d="M10.2632 6.75V4.02845C10.2632 3.87975 10.1354 3.76387 9.98739 3.77822C7.72964 3.99719 3.42222 4.13474 1.40385 3.21806C1.22341 3.13611 1 3.26162 1 3.4598V13.2982C1 13.416 1.08133 13.5177 1.1967 13.5412C2.43305 13.7931 4.84812 14.1591 6.01754 13.875M6.01754 13.875V7.125M6.01754 13.875V17.1307C6.01754 17.2062 6.05079 17.2777 6.11129 17.3227C6.95384 17.95 9.04455 18.8659 11.4211 18M13.3509 8.625V7.375C13.3509 7.23693 13.2402 7.12508 13.1021 7.12397C11.347 7.10986 8.05808 6.94672 7.17544 6.375M11.4211 18V8.92826C11.4211 8.77106 11.5645 8.65303 11.7196 8.67883C12.8787 8.87165 13.9582 8.8639 14.8947 8.75406M11.4211 18V19.6535C11.4211 19.7799 11.5151 19.8867 11.6409 19.8993C12.747 20.0102 14.8016 20.0604 15.6667 19.5M17.9825 7.875C17.4529 8.16898 16.3453 8.58396 14.8947 8.75406M14.8947 8.75406V7.375C14.8947 7.23693 15.0067 7.125 15.1447 7.125H23M23 7.125V18.5682C23 18.6766 22.9301 18.7726 22.827 18.806L22.614 18.875M23 7.125L22.614 7.26316M22.2281 7.40132V19M22.2281 7.40132L22.614 7.26316M22.2281 7.40132L21.9732 7.49255M22.2281 19L22.614 18.875M22.2281 19L21.9732 19.0825M22.614 18.875V7.26316M21.7184 7.58378V19.1651M21.7184 7.58378L21.9732 7.49255M21.7184 7.58378L21.4561 7.67764M21.7184 19.1651L21.9732 19.0825M21.7184 19.1651L21.4561 19.25M21.9732 19.0825V7.49255M21.4561 7.67764V19.25M21.4561 7.67764L21.1827 7.77551M21.4561 19.25L21.1827 19.3386M21.1827 19.3386V7.77551M21.1827 19.3386L20.9048 19.4286M21.1827 7.77551L20.9048 7.875M20.9048 7.875V19.4286M20.9048 7.875L20.6102 7.98045M20.9048 19.4286L20.6102 19.524M20.6102 19.524V7.98045M20.6102 19.524L20.2982 19.625M20.6102 7.98045L20.2982 8.09211M20.2982 8.09211V19.625M20.2982 8.09211L19.9829 8.20499M20.2982 19.625L19.9829 19.7271M19.9829 19.7271V8.20499M19.9829 19.7271L19.6155 19.8461M19.9829 8.20499L19.6155 8.33649M19.6155 8.33649V19.8461M19.6155 8.33649L19.2504 8.4672M19.6155 19.8461L19.2504 19.9644M19.2504 19.9644V8.4672M19.2504 19.9644L18.9112 20.0742M19.2504 8.4672L18.9112 8.58859M18.9112 8.58859V20.0742M18.9112 8.58859L18.602 8.69927M18.9112 20.0742L18.602 20.1743M18.602 20.1743V8.69927M18.602 20.1743L18.2499 20.2884M18.602 8.69927L18.2499 8.82533M18.2499 8.82533V20.2884M18.2499 8.82533L17.9032 8.94943M18.2499 20.2884L17.9032 20.4007M17.9032 20.4007V8.94943M17.9032 20.4007L17.5965 20.5M17.9032 8.94943L17.5965 9.05922M17.5965 9.05922V20.5M17.5965 9.05922L17.3054 9.16342M17.5965 20.5L17.3054 20.5943M17.3054 20.5943V9.16342M17.3054 20.5943L16.9278 20.7166M17.3054 9.16342L16.9278 9.29858M16.9278 9.29858V20.7166M16.9278 9.29858L16.6273 9.40613M16.9278 20.7166L16.6781 20.7974M16.6781 20.7974L16.6273 9.40613M16.6781 20.7974L16.3654 20.8987M16.6273 9.40613L16.282 9.52973M16.282 9.52973L16.3654 20.8987M16.282 9.52973L15.9743 9.63987M16.3654 20.8987L16.209 20.9494M16.209 20.9494L15.9743 9.63987M16.209 20.9494C16.1307 20.9747 16.0498 20.918 16.047 20.8357L15.6729 9.93243C15.6692 9.82376 15.7361 9.72513 15.8385 9.68849L15.9743 9.63987" stroke="black" stroke-linecap="round"></path>
</svg><style>@media (prefers-color-scheme: light) { :root { filter: none; } }
@media (prefers-color-scheme: dark) { :root { filter: invert(100%); } }
</style></svg>